<?xml version="1.0" encoding="utf-8"?>
<!-- Generator: Adobe Illustrator 19.2.1, SVG Export Plug-In . SVG Version: 6.00 Build 0)  -->
<svg version="1.1" id="layer" xmlns="http://www.w3.org/2000/svg" xmlns:xlink="http://www.w3.org/1999/xlink" x="0px" y="0px"
	 viewBox="0 0 652 652" style="enable-background:new 0 0 652 652;" xml:space="preserve">
<path id="logo-a1" d="M24.1,318.2c2.1-10.9,11.8-18.6,25.5-18.6c15.9,0,28.1,6.6,28.1,28.1v39.9H64.1l-1.7-8.6
	c-4.7,5.8-10.9,9.6-20.6,9.6c-11.4,0-20.4-7.1-20.4-20.4c0-13.3,11.8-21.9,28.5-21.9h11.1v-3c0-7.5-5.6-9.9-11.8-9.9
	c-4.7,0-9.4,1.5-11.6,7.7L24.1,318.2z M45.7,354.6c7.5,0,15.4-5.1,15.4-13.7v-1.3H50.2c-7.1-0.2-11.4,2.6-11.4,8.4
	C38.9,351.2,41.2,354.6,45.7,354.6z"/>
<path id="logo-a2" d="M345.1,318.2c2.1-10.9,11.8-18.6,25.5-18.6c15.9,0,28.1,6.6,28.1,28.1v39.9h-13.5l-1.7-8.6
	c-4.7,5.8-10.9,9.6-20.6,9.6c-11.4,0-20.4-7.1-20.4-20.4s11.8-21.9,28.5-21.9h11.1v-3c0-7.5-5.6-9.9-11.8-9.9
	c-4.7,0-9.4,1.5-11.6,7.7L345.1,318.2z M366.7,354.6c7.5,0,15.4-5.1,15.4-13.7v-1.3h-10.9c-7.1,0-11.4,2.6-11.4,8.6
	C359.9,351.2,362.2,354.6,366.7,354.6z"/>
<path id="logo-r" d="M413.6,367.7v-67.1h16.5v10.9c4.7-7.9,12.2-12,19.7-12c3,0,5.4,0.4,8.1,1.3l-3,15.2c-1.9-1.3-4.1-1.9-6.9-1.9
	c-9.6,0-18,7.9-18,29.6v23.8L413.6,367.7L413.6,367.7z"/>
<path id="logo-d" d="M493.1,299.5c6.9,0,13.3,3.4,16.3,7.1v-33h16.5v94.1h-16.5v-6.9c-1.9,3.4-7.9,7.9-16.3,7.9
	c-20.1,0-30.4-13.9-30.4-34.5C462.7,313.7,473,299.5,493.1,299.5z M495.5,354.6c8.6,0,15.4-7.1,15.4-20.4c0-13.3-6.9-20.4-15.4-20.4
	c-8.6,0-15.4,7.1-15.4,20.4C480.1,347.5,486.9,354.6,495.5,354.6z"/>
<path id="logo-s" d="M585.5,310.2l-9.9,9c-3-4.1-7.5-5.8-11.1-5.8c-3.2,0-6.2,1.9-6.2,5.6c0,3,2.4,5.1,6.4,6.4
	c9.2,3.4,24.2,6.2,24.2,20.6c0,12.2-9.2,22.3-23.8,22.3c-13.9,0-23.4-9.9-26.6-18l13.1-7.1c2.4,6.4,6.9,11.1,13.5,11.1
	c5.1,0,8.4-2.4,8.4-7.3c0-5.6-8.6-6.9-16.7-10.3c-7.3-3-13.5-7.7-13.5-18s8.4-19.5,21.4-19.5C573.5,299.3,581.4,303.8,585.5,310.2z"
	/>
<polygon id="logo-w2" points="242.2,300.6 230.4,346.7 219.1,300.6 203.6,300.6 192.5,346.7 183.1,319.9 182,323.1 176.6,340.2 
	185.2,367.7 199.8,367.7 211.4,324.4 222.9,367.7 237.5,367.7 258.9,300.6 "/>
<polygon id="logo-w3" points="321.9,300.6 309.9,346.7 298.6,300.6 283.1,300.6 272,346.7 262.6,319.9 261.5,323.1 256.1,340.2 
	264.7,367.7 279.3,367.7 290.9,324.4 302.4,367.7 317,367.7 338.4,300.6 "/>
<path id="logo-w1" d="M179.4,300.6L158,367.5h-14.6l-11.6-43.3l-11.6,43.5h-14.6l-21.4-66.9H101l12,45.9l11.4-45.9h15.2l11.4,45.9
	l12-45.9L179.4,300.6L179.4,300.6z"/>
<path id="logo-p" d="M610.4,346c6.4,0,11.1,4.7,11.1,11.1c0,6.4-4.7,11.1-11.1,11.1s-11.1-4.7-11.1-11.1
	C599.2,350.7,604.1,346,610.4,346z"/>
</svg>
